<svg xmlns="http://www.w3.org/2000/svg" viewBox="0 0 685.32 411.73"><defs><style>.cls-1{fill:#fc4445;}</style></defs><title>Layer 1 copy</title><g id="Layer_2" data-name="Layer 2"><g id="Layer_1-2" data-name="Layer 1"><g id="Layer_1_copy" data-name="Layer 1 copy"><path class="cls-1" d="M36.77,263.37C15.56,263.37,0,247.25,0,224.62V108.1C0,85.75,15.56,69.35,36.77,69.35,58.55,69.35,71,85.19,71,107.25v31.39H49.5V105.83c0-7.07-4-12.44-12.17-12.44s-12.16,5.37-12.16,12.44V226.88c0,7.08,4,12.45,12.16,12.45S49.5,234,49.5,226.88V193.79H71v31.68C71,247.81,58.55,263.37,36.77,263.37Zm100.39-2.83V179.65H113.41v80.89H88.52V72.18h24.89v83.43h23.75V72.18h24.89V260.54Zm104.08.85c-9.05,0-12.73-11.31-12.73-24.89v-45c0-6.5-3.39-11.59-9.9-11.59h-11v80.6H182.69V72.18h38.19C237,72.18,252,80.94,252,105.55v39.6c0,11.31-4.81,19.51-14.43,24,9.62,4.52,15,13,15,24v41.86c0,8.48,1.42,14.42,4.24,19.23v7.07ZM227.38,105.83c0-7.35-2.54-10.74-7.92-10.74H207.58v63.35h10.75c5.94,0,9-3.68,9-11.6Zm44.4,154.71V72.18h24.89V260.54Zm77.49,2.83c-22.35,0-35.92-14.71-35.92-38.46V204.54H336v21.21c0,9.9,4.25,15.84,12.45,15.84,8.77,0,13-5.66,13-15,0-17.53-6.79-31.67-19.8-50.91-12.16-17.25-27.15-42.7-27.15-64.48,0-23.76,11.6-41.86,36.2-41.86,20.37,0,33.66,14.7,33.66,38.46v21.5H362V107c0-9.33-4-15-11.32-15-7.07,0-12.16,4.8-12.16,13.57,0,20.93,7.07,30.83,21.21,52.32,14.43,21.22,25.74,42.43,25.74,64.21C385.47,251.77,367.37,263.37,349.27,263.37Zm93-167.15V260.54h-24.6V96.22H394.23v-24h70.71v24Zm36.77,164.32V72.18H504V260.54Zm89.93,0-3.39-36.48H543.84l-4.24,36.48H517L542.14,72.18H569.3l25.17,188.36ZM555.72,120.26l-9.05,80.89h16.4ZM663.47,260.54l-26.58-90.22-7.64-28V260.54H606.91V72.18H630.1l23.76,90.5L660.93,191V72.18H683V260.54ZM37.67,411.73C14.61,411.73,0,398.53,0,378.46v-6H23.06v3.87c0,9.86,4.93,15.14,14.08,15.14,9,0,13.38-5.11,13.38-13.2,0-8.45-6.69-13.56-20.24-20.6-14.08-7.57-29-16.9-29-34.85S14.08,288.69,38,288.69c21.48,0,35.74,14.43,35.74,33.09v4.75H51.05v-3.69c0-7.92-4.4-14.09-13.2-14.09-7.4,0-12.15,4.58-12.15,11.62,0,8.27,6.69,12.85,21.65,20.6,16.37,9,27.82,18.13,27.82,35.2C75.17,395.19,61.08,411.73,37.67,411.73ZM132.38,313v95.76H107.21V313H81.86V291.5h75.69V313Zm75.7,98.75c-22.18,0-38.38-13.38-38.38-32.92V291.5h25.53v87c0,7.92,4.57,12.32,12.85,12.32,8.45,0,13.2-4.4,13.2-12.32v-87h24.47v87.31C245.75,398.35,230.43,411.73,208.08,411.73Zm95.41-3H264.41V291.5h39.08c24.3,0,37.32,15.67,37.32,35.21v48.23C340.81,394.66,327.79,408.74,303.49,408.74Zm12.15-81.5c0-9.33-4.4-14.79-14.09-14.79h-12v75.34h12c9.69,0,14.09-5.45,14.09-14.79Zm42.6,81.5V291.5h65.31v21.13H383.42v25.7h27.63v19H383.42v29.4h40.13v22Zm139.43,0-25.88-47-10-19.19v66.19H438.69V291.5h20.95l25.17,48.06,9.51,19.19V291.5H517V408.74ZM579.87,313v95.76H554.7V313H529.35V291.5h75.7V313Zm68,98.75c-23.06,0-37.67-13.2-37.67-33.27v-6h23.06v3.87c0,9.86,4.93,15.14,14.08,15.14,9,0,13.38-5.11,13.38-13.2,0-8.45-6.69-13.56-20.25-20.6-14.08-7.57-29-16.9-29-34.85s12.85-34.15,36.79-34.15c21.48,0,35.74,14.43,35.74,33.09v4.75H661.21v-3.69c0-7.92-4.4-14.09-13.21-14.09-7.39,0-12.14,4.58-12.14,11.62,0,8.27,6.69,12.85,21.65,20.6,16.37,9,27.81,18.13,27.81,35.2C685.32,395.19,671.24,411.73,647.83,411.73ZM25.42,42.73c-9.55,0-19.69-2.45-25.42-5.85l5.61-9.61a55.42,55.42,0,0,0,20.05,4.42c3.46,0,5.55-.66,5.55-1.73,0-3.82-29.54-1-29.54-16.12C1.67,6.27,10,0,26.31,0,37.53,0,46.6,2.75,50.84,5.07l-6,9.13C38.19,12.17,32,11,27.75,11c-2.87,0-4.66.54-4.66,1.67,0,4.24,28.29.66,28.29,15.28C51.38,36.94,43.32,42.73,25.42,42.73ZM94.75,15.34V41.23H74V15.34H59.3V1.49h50.13V15.34Zm51.61,25.89L144,34.31H131.92l-2.69,6.92H111.09L128.64,1.49H150l17.9,39.74Zm-7.88-23.45-2.92,7.46h5.49Zm70.76,23.45-13.9-13.78-1.49-1.73V41.23H175.23V1.49h16.83L207,15.4l1.38,1.49V1.49H227V41.23Zm49.88-27V19h13.06v7H259.12V41.23H238.35V1.49H285V14.2ZM319.5,42.73c-17.07,0-27-9.55-27-21.07V21c0-11.58,10-20.95,27-20.95s27,9.37,27,21v.71C346.47,33.18,336.5,42.73,319.5,42.73Zm5.78-21.9c0-4.42-.95-8.48-5.78-8.48s-5.85,4.06-5.85,8.48v1c0,4.36,1,8.41,5.85,8.41s5.78-4.05,5.78-8.41Zm63.6,20.4c-2.38,0-4.77-2.62-4.77-6.14V31.45c0-2.81-.6-4.24-3.64-4.24H377v14H356.3V1.49h31.93c10.8,0,17.3,4.72,17.3,11.1v.54c0,3.82-3.64,7.76-9.48,8.89,6.92.66,8.83,4.71,8.83,9.31v3.28a8.12,8.12,0,0,0,2.15,6v.59Zm-4.35-24.88c0-2.09-1.14-2.86-4.24-2.86H377v6.32h3.28c3.1,0,4.24-1.31,4.24-3.28ZM441,41.23H415.49V1.49H441c17.66,0,27,8.71,27,19.46v.71C468,32.34,458.69,41.23,441,41.23Zm5.85-20.4c0-4-2-7.34-7.34-7.34h-3.29V29.12h3.29c5.37,0,7.34-3.34,7.34-7.34Z"/></g></g></g></svg>