<?xml version="1.0" encoding="utf-8"?>
<!-- Generator: Adobe Illustrator 23.0.6, SVG Export Plug-In . SVG Version: 6.00 Build 0)  -->
<svg version="1.1" id="Layer_1" xmlns="http://www.w3.org/2000/svg" xmlns:xlink="http://www.w3.org/1999/xlink" x="0px" y="0px"
	 viewBox="0 0 1064.8 639.7" style="enable-background:new 0 0 1064.8 639.7;" xml:space="preserve">
<style type="text/css">
	.st0{fill:#FC4445;}
</style>
<title>Layer 1 copy</title>
<g id="Layer_1_copy">
	<path class="st0" d="M226.5,377.4c-21.2,0-36.8-16.1-36.8-38.8V222.1c0-22.4,15.6-38.8,36.8-38.8c21.8,0,34.2,15.8,34.2,37.9v31.4
		h-21.5v-32.8c0-7.1-4-12.4-12.2-12.4s-12.2,5.4-12.2,12.4v121.1c0,7.1,4,12.5,12.2,12.5s12.2-5.3,12.2-12.5v-33.1h21.5v31.7
		C260.8,361.8,248.3,377.4,226.5,377.4z M326.9,374.5v-80.9h-23.8v80.9h-24.9V186.2h24.9v83.4h23.8v-83.4h24.9v188.4H326.9z
		 M431,375.4c-9,0-12.7-11.3-12.7-24.9v-45c0-6.5-3.4-11.6-9.9-11.6h-11v80.6h-24.9V186.2h38.2c16.1,0,31.1,8.8,31.1,33.4v39.6
		c0,11.3-4.8,19.5-14.4,24c9.6,4.5,15,13,15,24V349c0,8.5,1.4,14.4,4.2,19.2v7.1L431,375.4z M417.1,219.8c0-7.3-2.5-10.7-7.9-10.7
		h-11.9v63.4h10.8c5.9,0,9-3.7,9-11.6L417.1,219.8z M461.5,374.5V186.2h24.9v188.4H461.5z M539,377.4c-22.4,0-35.9-14.7-35.9-38.5
		v-20.4h22.6v21.2c0,9.9,4.2,15.8,12.5,15.8c8.8,0,13-5.7,13-15c0-17.5-6.8-31.7-19.8-50.9c-12.2-17.2-27.1-42.7-27.1-64.5
		c0-23.8,11.6-41.9,36.2-41.9c20.4,0,33.7,14.7,33.7,38.5v21.5h-22.4V221c0-9.3-4-15-11.3-15c-7.1,0-12.2,4.8-12.2,13.6
		c0,20.9,7.1,30.8,21.2,52.3c14.4,21.2,25.7,42.4,25.7,64.2C575.2,365.8,557.1,377.4,539,377.4z M632,210.2v164.3h-24.6V210.2H584
		v-24h70.7v24H632z M668.8,374.5V186.2h25v188.4H668.8z M758.7,374.5l-3.4-36.5h-21.7l-4.2,36.5h-22.6l25.1-188.4h27.2l25.2,188.4
		H758.7z M745.5,234.3l-9,80.9h16.4L745.5,234.3z M853.2,374.5l-26.6-90.2l-7.6-28v118.2h-22.3V186.2h23.2l23.8,90.5l7.1,28.3V186.2
		h22.1v188.4H853.2z M227.4,525.7c-23.1,0-37.7-13.2-37.7-33.3v-6h23.1v3.9c0,9.9,4.9,15.1,14.1,15.1c9,0,13.4-5.1,13.4-13.2
		c0-8.5-6.7-13.6-20.2-20.6c-14.1-7.6-29-16.9-29-34.9s12.8-34.1,36.7-34.1c21.5,0,35.7,14.4,35.7,33.1v4.8h-22.7v-3.7
		c0-7.9-4.4-14.1-13.2-14.1c-7.4,0-12.2,4.6-12.2,11.6c0,8.3,6.7,12.9,21.7,20.6c16.4,9,27.8,18.1,27.8,35.2
		C264.9,509.2,250.8,525.7,227.4,525.7z M322.1,427v95.8H297V427h-25.4v-21.5h75.7V427H322.1z M397.8,525.8
		c-22.2,0-38.4-13.4-38.4-32.9v-87.3H385v87c0,7.9,4.6,12.3,12.9,12.3c8.5,0,13.2-4.4,13.2-12.3v-87h24.5v87.3
		C435.5,512.3,420.2,525.7,397.8,525.8L397.8,525.8z M493.2,522.8h-39.1V405.5h39.1c24.3,0,37.3,15.7,37.3,35.2v48.2
		C530.6,508.7,517.5,522.7,493.2,522.8L493.2,522.8z M505.4,441.2c0-9.3-4.4-14.8-14.1-14.8h-12v75.3h12c9.7,0,14.1-5.5,14.1-14.8
		V441.2z M548,522.8V405.5h65.3v21.1h-40.1v25.7h27.6v19h-27.6v29.4h40.1v22L548,522.8z M687.4,522.8l-25.9-47l-10-19.2v66.2h-23.1
		V405.5h21l25.2,48.1l9.5,19.2v-67.2h22.7v117.2L687.4,522.8z M769.6,427v95.8h-25.2V427h-25.4v-21.5h75.7V427H769.6z M837.6,525.8
		c-23.1,0-37.7-13.2-37.7-33.3v-6H823v3.9c0,9.9,4.9,15.1,14.1,15.1c9,0,13.4-5.1,13.4-13.2c0-8.5-6.7-13.6-20.2-20.6
		c-14.1-7.6-29-16.9-29-34.9s12.8-34.1,36.8-34.1c21.5,0,35.7,14.4,35.7,33.1v4.8H851v-3.7c0-7.9-4.4-14.1-13.2-14.1
		c-7.4,0-12.1,4.6-12.1,11.6c0,8.3,6.7,12.9,21.7,20.6c16.4,9,27.8,18.1,27.8,35.2C875.1,509.2,861,525.7,837.6,525.8L837.6,525.8z
		 M215.2,156.7c-9.5,0-19.7-2.4-25.4-5.8l5.6-9.6c6.3,2.7,13.1,4.2,20.1,4.4c3.5,0,5.6-0.7,5.6-1.7c0-3.8-29.5-1-29.5-16.1
		c0-7.6,8.3-13.8,24.6-13.8c11.2,0,20.3,2.8,24.5,5.1l-6,9.1c-6.6-2-12.8-3.2-17.1-3.2c-2.9,0-4.7,0.5-4.7,1.7
		c0,4.2,28.3,0.7,28.3,15.3C241.1,150.9,233.1,156.7,215.2,156.7z M284.5,129.3v25.9h-20.8v-25.9h-14.7v-13.8h50.1v13.8H284.5z
		 M336.1,155.2l-2.4-6.9h-12.1l-2.7,6.9h-18.1l17.5-39.7h21.4l17.9,39.7L336.1,155.2z M328.2,131.8l-2.9,7.5h5.5L328.2,131.8z
		 M399,155.2l-13.9-13.8l-1.5-1.7v15.5H365v-39.7h16.8l14.9,13.9l1.4,1.5v-15.4h18.6v39.7H399z M448.9,128.2v4.8h13.1v7h-13.1v15.2
		h-20.8v-39.7h46.6v12.7L448.9,128.2z M509.3,156.7c-17.1,0-27-9.6-27-21.1V135c0-11.6,10-20.9,27-20.9c17,0,27,9.4,27,21v0.7
		C536.2,147.2,526.3,156.7,509.3,156.7z M515,134.8c0-4.4-1-8.5-5.8-8.5s-5.9,4.1-5.9,8.5v1c0,4.4,1,8.4,5.9,8.4s5.8-4.1,5.8-8.4
		V134.8z M578.6,155.2c-2.4,0-4.8-2.6-4.8-6.1v-3.6c0-2.8-0.6-4.2-3.6-4.2h-3.5v14h-20.7v-39.7H578c10.8,0,17.3,4.7,17.3,11.1v0.5
		c0,3.8-3.6,7.8-9.5,8.9c6.9,0.7,8.8,4.7,8.8,9.3v3.3c-0.1,2.2,0.6,4.4,2.2,6v0.6L578.6,155.2z M574.3,130.4c0-2.1-1.1-2.9-4.2-2.9
		h-3.3v6.3h3.3c3.1,0,4.2-1.3,4.2-3.3L574.3,130.4z M630.8,155.2h-25.5v-39.7h25.5c17.7,0,27,8.7,27,19.5v0.7
		C657.8,146.3,648.4,155.2,630.8,155.2z M636.6,134.8c0-4-2-7.3-7.3-7.3H626v15.6h3.3c5.4,0,7.3-3.3,7.3-7.3V134.8z"/>
</g>
</svg>
